<?xml version="1.0" standalone="no"?>
<!DOCTYPE svg PUBLIC "-//W3C//DTD SVG 20010904//EN"
 "http://www.w3.org/TR/2001/REC-SVG-20010904/DTD/svg10.dtd">
<svg version="1.0" xmlns="http://www.w3.org/2000/svg"
 width="512.000000pt" height="512.000000pt" viewBox="0 0 512.000000 512.000000"
 preserveAspectRatio="xMidYMid meet">

<g transform="translate(0.000000,512.000000) scale(0.100000,-0.100000)"
fill="#000000" stroke="none">
<path d="M3148 3831 c-50 -16 -95 -50 -124 -93 -25 -37 -29 -53 -29 -113 0
-63 3 -75 32 -115 17 -25 187 -200 377 -390 l346 -345 -1488 -5 -1488 -5 -43
-28 c-78 -52 -110 -161 -76 -258 19 -54 49 -86 100 -110 38 -18 102 -19 1518
-19 812 0 1477 -3 1477 -8 0 -4 -162 -169 -361 -367 -237 -237 -367 -374 -380
-400 -78 -166 99 -350 269 -279 46 19 1159 1122 1184 1174 21 42 23 129 4 173
-17 40 -1123 1145 -1171 1170 -42 21 -110 29 -147 18z"/>
</g>
</svg>
